<mxfile host="Electron" modified="2023-08-01T03:23:47.651Z" agent="Mozilla/5.0 (Windows NT 10.0; Win64; x64) AppleWebKit/537.36 (KHTML, like Gecko) draw.io/21.6.5 Chrome/114.0.5735.243 Electron/25.3.1 Safari/537.36" etag="obH_0HSja_hyDxWLrFUn" version="21.6.5" type="device">
  <diagram name="Page-1" id="UO8a2so5ky6xR_EhpQ7a">
    <mxGraphModel dx="1206" dy="710" grid="1" gridSize="10" guides="1" tooltips="1" connect="1" arrows="1" fold="1" page="1" pageScale="1" pageWidth="4681" pageHeight="3300" math="0" shadow="0">
      <root>
        <mxCell id="0" />
        <mxCell id="1" parent="0" />
        <mxCell id="dtB5DTBa3yLj0rCHDd4S-1" value="" style="ellipse;html=1;shape=startState;fillColor=#000000;strokeColor=#ff0000;" parent="1" vertex="1">
          <mxGeometry x="580" y="70" width="30" height="30" as="geometry" />
        </mxCell>
        <mxCell id="dtB5DTBa3yLj0rCHDd4S-2" value="" style="edgeStyle=orthogonalEdgeStyle;html=1;verticalAlign=bottom;endArrow=open;endSize=8;strokeColor=#ff0000;rounded=0;" parent="1" source="dtB5DTBa3yLj0rCHDd4S-1" edge="1">
          <mxGeometry relative="1" as="geometry">
            <mxPoint x="595" y="160" as="targetPoint" />
          </mxGeometry>
        </mxCell>
        <mxCell id="dtB5DTBa3yLj0rCHDd4S-3" value="New User" style="rhombus;whiteSpace=wrap;html=1;fontColor=#000000;fillColor=#ffffc0;strokeColor=#ff0000;" parent="1" vertex="1">
          <mxGeometry x="556" y="160" width="80" height="40" as="geometry" />
        </mxCell>
        <mxCell id="dtB5DTBa3yLj0rCHDd4S-4" value="no" style="edgeStyle=orthogonalEdgeStyle;html=1;align=left;verticalAlign=bottom;endArrow=open;endSize=8;strokeColor=#ff0000;rounded=0;" parent="1" source="dtB5DTBa3yLj0rCHDd4S-3" edge="1">
          <mxGeometry x="-1" relative="1" as="geometry">
            <mxPoint x="740" y="180" as="targetPoint" />
          </mxGeometry>
        </mxCell>
        <mxCell id="dtB5DTBa3yLj0rCHDd4S-5" value="yes" style="edgeStyle=orthogonalEdgeStyle;html=1;align=left;verticalAlign=top;endArrow=open;endSize=8;strokeColor=#ff0000;rounded=0;" parent="1" source="dtB5DTBa3yLj0rCHDd4S-3" edge="1">
          <mxGeometry x="-1" relative="1" as="geometry">
            <mxPoint x="596" y="250" as="targetPoint" />
            <mxPoint x="595.0588235294119" y="201.97058823529403" as="sourcePoint" />
          </mxGeometry>
        </mxCell>
        <mxCell id="dtB5DTBa3yLj0rCHDd4S-7" value="Register" style="rounded=1;whiteSpace=wrap;html=1;arcSize=40;fontColor=#000000;fillColor=#ffffc0;strokeColor=#ff0000;" parent="1" vertex="1">
          <mxGeometry x="536" y="250" width="120" height="40" as="geometry" />
        </mxCell>
        <mxCell id="dtB5DTBa3yLj0rCHDd4S-8" value="" style="edgeStyle=orthogonalEdgeStyle;html=1;verticalAlign=bottom;endArrow=open;endSize=8;strokeColor=#ff0000;rounded=0;entryX=0.17;entryY=1.008;entryDx=0;entryDy=0;entryPerimeter=0;" parent="1" source="dtB5DTBa3yLj0rCHDd4S-7" target="dtB5DTBa3yLj0rCHDd4S-9" edge="1">
          <mxGeometry relative="1" as="geometry">
            <mxPoint x="596" y="350" as="targetPoint" />
          </mxGeometry>
        </mxCell>
        <mxCell id="dtB5DTBa3yLj0rCHDd4S-9" value="Login" style="rounded=1;whiteSpace=wrap;html=1;arcSize=40;fontColor=#000000;fillColor=#ffffc0;strokeColor=#ff0000;" parent="1" vertex="1">
          <mxGeometry x="740" y="160" width="120" height="40" as="geometry" />
        </mxCell>
        <mxCell id="dtB5DTBa3yLj0rCHDd4S-10" value="" style="edgeStyle=orthogonalEdgeStyle;html=1;verticalAlign=bottom;endArrow=open;endSize=8;strokeColor=#ff0000;rounded=0;" parent="1" source="dtB5DTBa3yLj0rCHDd4S-9" target="dtB5DTBa3yLj0rCHDd4S-11" edge="1">
          <mxGeometry relative="1" as="geometry">
            <mxPoint x="800" y="260" as="targetPoint" />
            <Array as="points">
              <mxPoint x="810" y="210" />
              <mxPoint x="810" y="210" />
            </Array>
          </mxGeometry>
        </mxCell>
        <mxCell id="dtB5DTBa3yLj0rCHDd4S-11" value="&lt;font style=&quot;font-size: 11px;&quot;&gt;Login &lt;br&gt;Successful&lt;/font&gt;" style="rhombus;whiteSpace=wrap;html=1;fontColor=#000000;fillColor=#ffffc0;strokeColor=#ff0000;" parent="1" vertex="1">
          <mxGeometry x="760" y="260" width="100" height="60" as="geometry" />
        </mxCell>
        <mxCell id="dtB5DTBa3yLj0rCHDd4S-12" value="no" style="edgeStyle=orthogonalEdgeStyle;html=1;align=left;verticalAlign=bottom;endArrow=open;endSize=8;strokeColor=#ff0000;rounded=0;" parent="1" source="dtB5DTBa3yLj0rCHDd4S-11" target="dtB5DTBa3yLj0rCHDd4S-9" edge="1">
          <mxGeometry x="-1" relative="1" as="geometry">
            <mxPoint x="940" y="280" as="targetPoint" />
            <Array as="points">
              <mxPoint x="900" y="290" />
              <mxPoint x="900" y="180" />
            </Array>
          </mxGeometry>
        </mxCell>
        <mxCell id="dtB5DTBa3yLj0rCHDd4S-13" value="yes" style="edgeStyle=orthogonalEdgeStyle;html=1;align=left;verticalAlign=top;endArrow=open;endSize=8;strokeColor=#ff0000;rounded=0;" parent="1" source="dtB5DTBa3yLj0rCHDd4S-11" target="dtB5DTBa3yLj0rCHDd4S-14" edge="1">
          <mxGeometry x="-1" relative="1" as="geometry">
            <mxPoint x="800" y="360" as="targetPoint" />
          </mxGeometry>
        </mxCell>
        <mxCell id="dtB5DTBa3yLj0rCHDd4S-15" value="" style="edgeStyle=orthogonalEdgeStyle;html=1;align=left;verticalAlign=bottom;endArrow=open;endSize=8;strokeColor=#ff0000;rounded=0;" parent="1" source="dtB5DTBa3yLj0rCHDd4S-14" target="dtB5DTBa3yLj0rCHDd4S-46" edge="1">
          <mxGeometry x="-1" relative="1" as="geometry">
            <mxPoint x="1080" y="440" as="targetPoint" />
          </mxGeometry>
        </mxCell>
        <mxCell id="dtB5DTBa3yLj0rCHDd4S-19" value="" style="edgeStyle=orthogonalEdgeStyle;html=1;align=left;verticalAlign=bottom;endArrow=open;endSize=8;strokeColor=#ff0000;rounded=0;exitX=0;exitY=0.5;exitDx=0;exitDy=0;entryX=0.498;entryY=0.147;entryDx=0;entryDy=0;entryPerimeter=0;" parent="1" source="dtB5DTBa3yLj0rCHDd4S-14" target="dtB5DTBa3yLj0rCHDd4S-20" edge="1">
          <mxGeometry x="-1" relative="1" as="geometry">
            <mxPoint x="641" y="440" as="targetPoint" />
            <mxPoint x="771" y="380" as="sourcePoint" />
            <Array as="points">
              <mxPoint x="231" y="381" />
            </Array>
          </mxGeometry>
        </mxCell>
        <mxCell id="dtB5DTBa3yLj0rCHDd4S-20" value="" style="shape=line;html=1;strokeWidth=6;strokeColor=#ff0000;" parent="1" vertex="1">
          <mxGeometry x="131" y="457" width="200" height="10" as="geometry" />
        </mxCell>
        <mxCell id="dtB5DTBa3yLj0rCHDd4S-21" value="" style="edgeStyle=orthogonalEdgeStyle;html=1;verticalAlign=bottom;endArrow=open;endSize=8;strokeColor=#ff0000;rounded=0;entryX=0.5;entryY=0;entryDx=0;entryDy=0;" parent="1" source="dtB5DTBa3yLj0rCHDd4S-20" target="dtB5DTBa3yLj0rCHDd4S-27" edge="1">
          <mxGeometry relative="1" as="geometry">
            <mxPoint x="231" y="520" as="targetPoint" />
            <Array as="points">
              <mxPoint x="220" y="503" />
              <mxPoint x="100" y="503" />
            </Array>
          </mxGeometry>
        </mxCell>
        <mxCell id="dtB5DTBa3yLj0rCHDd4S-22" value="Admin" style="text;strokeColor=none;align=center;fillColor=none;html=1;verticalAlign=middle;whiteSpace=wrap;rounded=0;" parent="1" vertex="1">
          <mxGeometry x="231" y="417" width="60" height="30" as="geometry" />
        </mxCell>
        <mxCell id="dtB5DTBa3yLj0rCHDd4S-24" value="" style="edgeStyle=orthogonalEdgeStyle;html=1;verticalAlign=bottom;endArrow=open;endSize=8;strokeColor=#ff0000;rounded=0;entryX=0.5;entryY=0;entryDx=0;entryDy=0;" parent="1" source="dtB5DTBa3yLj0rCHDd4S-23" target="dtB5DTBa3yLj0rCHDd4S-36" edge="1">
          <mxGeometry relative="1" as="geometry">
            <mxPoint x="810" y="540" as="targetPoint" />
          </mxGeometry>
        </mxCell>
        <mxCell id="dtB5DTBa3yLj0rCHDd4S-25" value="Registersfitnesstrainer" style="text;strokeColor=none;align=center;fillColor=none;html=1;verticalAlign=middle;whiteSpace=wrap;rounded=0;" parent="1" vertex="1">
          <mxGeometry x="730" y="410" width="90" height="30" as="geometry" />
        </mxCell>
        <mxCell id="dtB5DTBa3yLj0rCHDd4S-27" value="Manage Website" style="rounded=1;whiteSpace=wrap;html=1;arcSize=40;fontColor=#000000;fillColor=#ffffc0;strokeColor=#ff0000;" parent="1" vertex="1">
          <mxGeometry x="40" y="539" width="120" height="40" as="geometry" />
        </mxCell>
        <mxCell id="dtB5DTBa3yLj0rCHDd4S-28" value="" style="edgeStyle=orthogonalEdgeStyle;html=1;verticalAlign=bottom;endArrow=open;endSize=8;strokeColor=#ff0000;rounded=0;entryX=0.25;entryY=0.5;entryDx=0;entryDy=0;entryPerimeter=0;" parent="1" source="dtB5DTBa3yLj0rCHDd4S-27" target="dtB5DTBa3yLj0rCHDd4S-31" edge="1">
          <mxGeometry relative="1" as="geometry">
            <mxPoint x="231" y="620" as="targetPoint" />
          </mxGeometry>
        </mxCell>
        <mxCell id="dtB5DTBa3yLj0rCHDd4S-31" value="" style="shape=line;html=1;strokeWidth=6;strokeColor=#ff0000;" parent="1" vertex="1">
          <mxGeometry x="131" y="640" width="200" height="10" as="geometry" />
        </mxCell>
        <mxCell id="dtB5DTBa3yLj0rCHDd4S-32" value="" style="edgeStyle=orthogonalEdgeStyle;html=1;verticalAlign=bottom;endArrow=open;endSize=8;strokeColor=#ff0000;rounded=0;" parent="1" source="dtB5DTBa3yLj0rCHDd4S-31" edge="1">
          <mxGeometry relative="1" as="geometry">
            <mxPoint x="231" y="700" as="targetPoint" />
          </mxGeometry>
        </mxCell>
        <mxCell id="dtB5DTBa3yLj0rCHDd4S-33" value="Logout" style="rounded=1;whiteSpace=wrap;html=1;arcSize=40;fontColor=#000000;fillColor=#ffffc0;strokeColor=#ff0000;" parent="1" vertex="1">
          <mxGeometry x="171" y="700" width="120" height="40" as="geometry" />
        </mxCell>
        <mxCell id="dtB5DTBa3yLj0rCHDd4S-34" value="" style="edgeStyle=orthogonalEdgeStyle;html=1;verticalAlign=bottom;endArrow=open;endSize=8;strokeColor=#ff0000;rounded=0;" parent="1" source="dtB5DTBa3yLj0rCHDd4S-33" edge="1">
          <mxGeometry relative="1" as="geometry">
            <mxPoint x="231" y="800" as="targetPoint" />
          </mxGeometry>
        </mxCell>
        <mxCell id="dtB5DTBa3yLj0rCHDd4S-35" value="" style="ellipse;html=1;shape=endState;fillColor=#000000;strokeColor=#ff0000;" parent="1" vertex="1">
          <mxGeometry x="216" y="800" width="30" height="30" as="geometry" />
        </mxCell>
        <mxCell id="dtB5DTBa3yLj0rCHDd4S-36" value="View and monitor&amp;nbsp;&lt;br&gt;allocated users" style="rounded=1;whiteSpace=wrap;html=1;arcSize=40;fontColor=#000000;fillColor=#ffffc0;strokeColor=#ff0000;" parent="1" vertex="1">
          <mxGeometry x="597" y="539" width="120" height="40" as="geometry" />
        </mxCell>
        <mxCell id="dtB5DTBa3yLj0rCHDd4S-37" value="" style="edgeStyle=orthogonalEdgeStyle;html=1;verticalAlign=bottom;endArrow=open;endSize=8;strokeColor=#ff0000;rounded=0;" parent="1" source="dtB5DTBa3yLj0rCHDd4S-36" edge="1">
          <mxGeometry relative="1" as="geometry">
            <mxPoint x="716" y="640" as="targetPoint" />
          </mxGeometry>
        </mxCell>
        <mxCell id="dtB5DTBa3yLj0rCHDd4S-38" value="" style="edgeStyle=orthogonalEdgeStyle;html=1;verticalAlign=bottom;endArrow=open;endSize=8;strokeColor=#ff0000;rounded=0;exitX=0.496;exitY=0.82;exitDx=0;exitDy=0;exitPerimeter=0;" parent="1" source="dtB5DTBa3yLj0rCHDd4S-23" target="dtB5DTBa3yLj0rCHDd4S-39" edge="1">
          <mxGeometry relative="1" as="geometry">
            <mxPoint x="890" y="530" as="targetPoint" />
            <mxPoint x="820" y="480" as="sourcePoint" />
            <Array as="points">
              <mxPoint x="760" y="520" />
              <mxPoint x="760" y="520" />
            </Array>
          </mxGeometry>
        </mxCell>
        <mxCell id="dtB5DTBa3yLj0rCHDd4S-39" value="change/update custom plans" style="rounded=1;whiteSpace=wrap;html=1;arcSize=40;fontColor=#000000;fillColor=#ffffc0;strokeColor=#ff0000;" parent="1" vertex="1">
          <mxGeometry x="730" y="539" width="120" height="40" as="geometry" />
        </mxCell>
        <mxCell id="dtB5DTBa3yLj0rCHDd4S-40" value="" style="edgeStyle=orthogonalEdgeStyle;html=1;verticalAlign=bottom;endArrow=open;endSize=8;strokeColor=#ff0000;rounded=0;exitX=0.5;exitY=1;exitDx=0;exitDy=0;entryX=0.577;entryY=0.889;entryDx=0;entryDy=0;entryPerimeter=0;" parent="1" source="dtB5DTBa3yLj0rCHDd4S-39" target="dtB5DTBa3yLj0rCHDd4S-41" edge="1">
          <mxGeometry relative="1" as="geometry">
            <mxPoint x="910" y="640" as="targetPoint" />
            <mxPoint x="726" y="590" as="sourcePoint" />
          </mxGeometry>
        </mxCell>
        <mxCell id="dtB5DTBa3yLj0rCHDd4S-41" value="" style="shape=line;html=1;strokeWidth=6;strokeColor=#ff0000;" parent="1" vertex="1">
          <mxGeometry x="685" y="641" width="250" height="10" as="geometry" />
        </mxCell>
        <mxCell id="dtB5DTBa3yLj0rCHDd4S-42" value="" style="edgeStyle=orthogonalEdgeStyle;html=1;verticalAlign=bottom;endArrow=open;endSize=8;strokeColor=#ff0000;rounded=0;" parent="1" source="dtB5DTBa3yLj0rCHDd4S-41" edge="1">
          <mxGeometry relative="1" as="geometry">
            <mxPoint x="815" y="720" as="targetPoint" />
          </mxGeometry>
        </mxCell>
        <mxCell id="dtB5DTBa3yLj0rCHDd4S-43" value="Logout" style="rounded=1;whiteSpace=wrap;html=1;arcSize=40;fontColor=#000000;fillColor=#ffffc0;strokeColor=#ff0000;" parent="1" vertex="1">
          <mxGeometry x="755" y="720" width="120" height="40" as="geometry" />
        </mxCell>
        <mxCell id="dtB5DTBa3yLj0rCHDd4S-44" value="" style="edgeStyle=orthogonalEdgeStyle;html=1;verticalAlign=bottom;endArrow=open;endSize=8;strokeColor=#ff0000;rounded=0;" parent="1" source="dtB5DTBa3yLj0rCHDd4S-43" edge="1">
          <mxGeometry relative="1" as="geometry">
            <mxPoint x="815" y="820" as="targetPoint" />
          </mxGeometry>
        </mxCell>
        <mxCell id="dtB5DTBa3yLj0rCHDd4S-45" value="" style="ellipse;html=1;shape=endState;fillColor=#000000;strokeColor=#ff0000;" parent="1" vertex="1">
          <mxGeometry x="800" y="820" width="30" height="30" as="geometry" />
        </mxCell>
        <mxCell id="dtB5DTBa3yLj0rCHDd4S-46" value="" style="shape=line;html=1;strokeWidth=6;strokeColor=#ff0000;" parent="1" vertex="1">
          <mxGeometry x="1062" y="460" width="200" height="10" as="geometry" />
        </mxCell>
        <mxCell id="dtB5DTBa3yLj0rCHDd4S-56" value="" style="edgeStyle=orthogonalEdgeStyle;html=1;verticalAlign=bottom;endArrow=open;endSize=8;strokeColor=#ff0000;rounded=0;entryX=0.5;entryY=0;entryDx=0;entryDy=0;exitX=0.492;exitY=0.667;exitDx=0;exitDy=0;exitPerimeter=0;" parent="1" source="dtB5DTBa3yLj0rCHDd4S-46" target="dtB5DTBa3yLj0rCHDd4S-57" edge="1">
          <mxGeometry relative="1" as="geometry">
            <mxPoint x="1157" y="539" as="targetPoint" />
            <mxPoint x="1157" y="469" as="sourcePoint" />
          </mxGeometry>
        </mxCell>
        <mxCell id="dtB5DTBa3yLj0rCHDd4S-57" value="Manage Booking" style="rounded=1;whiteSpace=wrap;html=1;arcSize=40;fontColor=#000000;fillColor=#ffffc0;strokeColor=#ff0000;" parent="1" vertex="1">
          <mxGeometry x="982" y="540" width="120" height="40" as="geometry" />
        </mxCell>
        <mxCell id="dtB5DTBa3yLj0rCHDd4S-58" value="" style="edgeStyle=orthogonalEdgeStyle;html=1;verticalAlign=bottom;endArrow=open;endSize=8;strokeColor=#ff0000;rounded=0;entryX=0.145;entryY=0.06;entryDx=0;entryDy=0;entryPerimeter=0;exitX=0.5;exitY=1;exitDx=0;exitDy=0;" parent="1" source="dtB5DTBa3yLj0rCHDd4S-57" target="dtB5DTBa3yLj0rCHDd4S-62" edge="1">
          <mxGeometry relative="1" as="geometry">
            <mxPoint x="1063" y="639" as="targetPoint" />
            <Array as="points">
              <mxPoint x="1042" y="600" />
              <mxPoint x="1073" y="600" />
            </Array>
          </mxGeometry>
        </mxCell>
        <mxCell id="dtB5DTBa3yLj0rCHDd4S-59" value="" style="edgeStyle=orthogonalEdgeStyle;html=1;verticalAlign=bottom;endArrow=open;endSize=8;strokeColor=#ff0000;rounded=0;" parent="1" target="dtB5DTBa3yLj0rCHDd4S-60" edge="1">
          <mxGeometry relative="1" as="geometry">
            <mxPoint x="1257" y="540" as="targetPoint" />
            <mxPoint x="1160" y="501" as="sourcePoint" />
            <Array as="points">
              <mxPoint x="1160" y="530" />
              <mxPoint x="1160" y="530" />
            </Array>
          </mxGeometry>
        </mxCell>
        <mxCell id="dtB5DTBa3yLj0rCHDd4S-60" value="Update Availability" style="rounded=1;whiteSpace=wrap;html=1;arcSize=40;fontColor=#000000;fillColor=#ffffc0;strokeColor=#ff0000;" parent="1" vertex="1">
          <mxGeometry x="1110" y="539" width="120" height="40" as="geometry" />
        </mxCell>
        <mxCell id="dtB5DTBa3yLj0rCHDd4S-61" value="" style="edgeStyle=orthogonalEdgeStyle;html=1;verticalAlign=bottom;endArrow=open;endSize=8;strokeColor=#ff0000;rounded=0;exitX=0.5;exitY=1;exitDx=0;exitDy=0;" parent="1" source="dtB5DTBa3yLj0rCHDd4S-60" target="dtB5DTBa3yLj0rCHDd4S-62" edge="1">
          <mxGeometry relative="1" as="geometry">
            <mxPoint x="1257" y="639" as="targetPoint" />
            <mxPoint x="1073" y="589" as="sourcePoint" />
            <Array as="points">
              <mxPoint x="1162" y="579" />
            </Array>
          </mxGeometry>
        </mxCell>
        <mxCell id="dtB5DTBa3yLj0rCHDd4S-62" value="" style="shape=line;html=1;strokeWidth=6;strokeColor=#ff0000;" parent="1" vertex="1">
          <mxGeometry x="1037" y="639" width="250" height="10" as="geometry" />
        </mxCell>
        <mxCell id="dtB5DTBa3yLj0rCHDd4S-63" value="" style="edgeStyle=orthogonalEdgeStyle;html=1;verticalAlign=bottom;endArrow=open;endSize=8;strokeColor=#ff0000;rounded=0;" parent="1" source="dtB5DTBa3yLj0rCHDd4S-62" edge="1">
          <mxGeometry relative="1" as="geometry">
            <mxPoint x="1162" y="719" as="targetPoint" />
          </mxGeometry>
        </mxCell>
        <mxCell id="dtB5DTBa3yLj0rCHDd4S-64" value="Logout" style="rounded=1;whiteSpace=wrap;html=1;arcSize=40;fontColor=#000000;fillColor=#ffffc0;strokeColor=#ff0000;" parent="1" vertex="1">
          <mxGeometry x="1102" y="719" width="120" height="40" as="geometry" />
        </mxCell>
        <mxCell id="dtB5DTBa3yLj0rCHDd4S-65" value="" style="edgeStyle=orthogonalEdgeStyle;html=1;verticalAlign=bottom;endArrow=open;endSize=8;strokeColor=#ff0000;rounded=0;" parent="1" source="dtB5DTBa3yLj0rCHDd4S-64" edge="1">
          <mxGeometry relative="1" as="geometry">
            <mxPoint x="1162" y="819" as="targetPoint" />
          </mxGeometry>
        </mxCell>
        <mxCell id="dtB5DTBa3yLj0rCHDd4S-66" value="" style="ellipse;html=1;shape=endState;fillColor=#000000;strokeColor=#ff0000;" parent="1" vertex="1">
          <mxGeometry x="1147" y="819" width="30" height="30" as="geometry" />
        </mxCell>
        <mxCell id="dtB5DTBa3yLj0rCHDd4S-81" value="" style="shape=line;html=1;strokeWidth=6;strokeColor=#ff0000;" parent="1" vertex="1">
          <mxGeometry x="389" y="462" width="200" height="10" as="geometry" />
        </mxCell>
        <mxCell id="dtB5DTBa3yLj0rCHDd4S-82" value="" style="edgeStyle=orthogonalEdgeStyle;html=1;verticalAlign=bottom;endArrow=open;endSize=8;strokeColor=#ff0000;rounded=0;entryX=0.5;entryY=0;entryDx=0;entryDy=0;exitX=0.492;exitY=0.667;exitDx=0;exitDy=0;exitPerimeter=0;" parent="1" source="dtB5DTBa3yLj0rCHDd4S-81" target="dtB5DTBa3yLj0rCHDd4S-83" edge="1">
          <mxGeometry relative="1" as="geometry">
            <mxPoint x="484" y="541" as="targetPoint" />
            <mxPoint x="484" y="471" as="sourcePoint" />
            <Array as="points">
              <mxPoint x="489" y="469" />
            </Array>
          </mxGeometry>
        </mxCell>
        <mxCell id="dtB5DTBa3yLj0rCHDd4S-83" value="Find and buy plans or membership" style="rounded=1;whiteSpace=wrap;html=1;arcSize=40;fontColor=#000000;fillColor=#ffffc0;strokeColor=#ff0000;" parent="1" vertex="1">
          <mxGeometry x="429" y="539" width="120" height="40" as="geometry" />
        </mxCell>
        <mxCell id="dtB5DTBa3yLj0rCHDd4S-84" value="" style="edgeStyle=orthogonalEdgeStyle;html=1;verticalAlign=bottom;endArrow=open;endSize=8;strokeColor=#ff0000;rounded=0;" parent="1" source="dtB5DTBa3yLj0rCHDd4S-83" target="dtB5DTBa3yLj0rCHDd4S-88" edge="1">
          <mxGeometry relative="1" as="geometry">
            <mxPoint x="390" y="641" as="targetPoint" />
          </mxGeometry>
        </mxCell>
        <mxCell id="dtB5DTBa3yLj0rCHDd4S-88" value="" style="shape=line;html=1;strokeWidth=6;strokeColor=#ff0000;" parent="1" vertex="1">
          <mxGeometry x="364" y="641" width="250" height="10" as="geometry" />
        </mxCell>
        <mxCell id="dtB5DTBa3yLj0rCHDd4S-89" value="" style="edgeStyle=orthogonalEdgeStyle;html=1;verticalAlign=bottom;endArrow=open;endSize=8;strokeColor=#ff0000;rounded=0;" parent="1" source="dtB5DTBa3yLj0rCHDd4S-88" edge="1">
          <mxGeometry relative="1" as="geometry">
            <mxPoint x="489" y="721" as="targetPoint" />
          </mxGeometry>
        </mxCell>
        <mxCell id="dtB5DTBa3yLj0rCHDd4S-90" value="Logout" style="rounded=1;whiteSpace=wrap;html=1;arcSize=40;fontColor=#000000;fillColor=#ffffc0;strokeColor=#ff0000;" parent="1" vertex="1">
          <mxGeometry x="429" y="721" width="120" height="40" as="geometry" />
        </mxCell>
        <mxCell id="dtB5DTBa3yLj0rCHDd4S-91" value="" style="edgeStyle=orthogonalEdgeStyle;html=1;verticalAlign=bottom;endArrow=open;endSize=8;strokeColor=#ff0000;rounded=0;" parent="1" source="dtB5DTBa3yLj0rCHDd4S-90" edge="1">
          <mxGeometry relative="1" as="geometry">
            <mxPoint x="489" y="821" as="targetPoint" />
          </mxGeometry>
        </mxCell>
        <mxCell id="dtB5DTBa3yLj0rCHDd4S-92" value="" style="ellipse;html=1;shape=endState;fillColor=#000000;strokeColor=#ff0000;" parent="1" vertex="1">
          <mxGeometry x="474" y="821" width="30" height="30" as="geometry" />
        </mxCell>
        <mxCell id="dtB5DTBa3yLj0rCHDd4S-93" value="user" style="text;strokeColor=none;align=center;fillColor=none;html=1;verticalAlign=middle;whiteSpace=wrap;rounded=0;" parent="1" vertex="1">
          <mxGeometry x="497" y="439" width="100" height="30" as="geometry" />
        </mxCell>
        <mxCell id="dtB5DTBa3yLj0rCHDd4S-94" value="" style="edgeStyle=orthogonalEdgeStyle;html=1;align=left;verticalAlign=top;endArrow=open;endSize=8;strokeColor=#ff0000;rounded=0;entryX=0.485;entryY=0.2;entryDx=0;entryDy=0;entryPerimeter=0;" parent="1" edge="1">
          <mxGeometry x="-1" relative="1" as="geometry">
            <mxPoint x="488" y="464" as="targetPoint" />
            <mxPoint x="488" y="380" as="sourcePoint" />
            <Array as="points">
              <mxPoint x="488" y="380" />
            </Array>
          </mxGeometry>
        </mxCell>
        <mxCell id="dtB5DTBa3yLj0rCHDd4S-98" value="Payment" style="rounded=1;whiteSpace=wrap;html=1;arcSize=40;fontColor=#000000;fillColor=#ffffc0;strokeColor=#ff0000;" parent="1" vertex="1">
          <mxGeometry x="1240" y="539" width="120" height="40" as="geometry" />
        </mxCell>
        <mxCell id="dtB5DTBa3yLj0rCHDd4S-99" value="" style="edgeStyle=orthogonalEdgeStyle;html=1;verticalAlign=bottom;endArrow=open;endSize=8;strokeColor=#ff0000;rounded=0;entryX=0.812;entryY=0.1;entryDx=0;entryDy=0;entryPerimeter=0;" parent="1" source="dtB5DTBa3yLj0rCHDd4S-98" target="dtB5DTBa3yLj0rCHDd4S-62" edge="1">
          <mxGeometry relative="1" as="geometry">
            <mxPoint x="1300" y="639" as="targetPoint" />
          </mxGeometry>
        </mxCell>
        <mxCell id="dtB5DTBa3yLj0rCHDd4S-100" value="" style="edgeStyle=orthogonalEdgeStyle;html=1;verticalAlign=bottom;endArrow=open;endSize=8;strokeColor=#ff0000;rounded=0;" parent="1" target="dtB5DTBa3yLj0rCHDd4S-98" edge="1">
          <mxGeometry relative="1" as="geometry">
            <mxPoint x="1170" y="549" as="targetPoint" />
            <mxPoint x="1160" y="500" as="sourcePoint" />
            <Array as="points">
              <mxPoint x="1160" y="510" />
              <mxPoint x="1300" y="510" />
            </Array>
          </mxGeometry>
        </mxCell>
        <mxCell id="7nmVNF_0FV4pf_lM1hzO-1" value="Verify and monitor&amp;nbsp;&lt;br&gt;trainers and users" style="rounded=1;whiteSpace=wrap;html=1;arcSize=40;fontColor=#000000;fillColor=#ffffc0;strokeColor=#ff0000;" parent="1" vertex="1">
          <mxGeometry x="246" y="540" width="120" height="40" as="geometry" />
        </mxCell>
        <mxCell id="7nmVNF_0FV4pf_lM1hzO-2" value="" style="edgeStyle=orthogonalEdgeStyle;html=1;verticalAlign=bottom;endArrow=open;endSize=8;strokeColor=#ff0000;rounded=0;exitX=0.496;exitY=0.82;exitDx=0;exitDy=0;exitPerimeter=0;" parent="1" edge="1">
          <mxGeometry relative="1" as="geometry">
            <mxPoint x="310" y="540" as="targetPoint" />
            <mxPoint x="220" y="467" as="sourcePoint" />
            <Array as="points">
              <mxPoint x="220" y="504" />
              <mxPoint x="310" y="504" />
              <mxPoint x="310" y="539" />
            </Array>
          </mxGeometry>
        </mxCell>
        <mxCell id="7nmVNF_0FV4pf_lM1hzO-3" value="&lt;span style=&quot;color: rgb(0, 0, 0); font-family: Helvetica; font-size: 12px; font-style: normal; font-variant-ligatures: normal; font-variant-caps: normal; font-weight: 400; letter-spacing: normal; orphans: 2; text-align: center; text-indent: 0px; text-transform: none; widows: 2; word-spacing: 0px; -webkit-text-stroke-width: 0px; background-color: rgb(251, 251, 251); text-decoration-thickness: initial; text-decoration-style: initial; text-decoration-color: initial; float: none; display: inline !important;&quot;&gt;Registerssportstrainer&lt;/span&gt;" style="text;whiteSpace=wrap;html=1;" parent="1" vertex="1">
          <mxGeometry x="1087" y="399" width="150" height="40" as="geometry" />
        </mxCell>
        <mxCell id="7nmVNF_0FV4pf_lM1hzO-6" style="edgeStyle=orthogonalEdgeStyle;rounded=0;orthogonalLoop=1;jettySize=auto;html=1;exitX=0.5;exitY=1;exitDx=0;exitDy=0;" parent="1" source="7nmVNF_0FV4pf_lM1hzO-3" target="7nmVNF_0FV4pf_lM1hzO-3" edge="1">
          <mxGeometry relative="1" as="geometry" />
        </mxCell>
        <mxCell id="7nmVNF_0FV4pf_lM1hzO-9" value="Payment" style="rounded=1;whiteSpace=wrap;html=1;arcSize=40;fontColor=#000000;fillColor=#ffffc0;strokeColor=#ff0000;" parent="1" vertex="1">
          <mxGeometry x="850" y="540" width="120" height="40" as="geometry" />
        </mxCell>
        <mxCell id="7nmVNF_0FV4pf_lM1hzO-10" value="" style="edgeStyle=orthogonalEdgeStyle;html=1;align=left;verticalAlign=bottom;endArrow=open;endSize=8;strokeColor=#ff0000;rounded=0;exitX=0;exitY=0.5;exitDx=0;exitDy=0;entryX=0.498;entryY=0.147;entryDx=0;entryDy=0;entryPerimeter=0;" parent="1" target="dtB5DTBa3yLj0rCHDd4S-14" edge="1">
          <mxGeometry x="-1" relative="1" as="geometry">
            <mxPoint x="231" y="458" as="targetPoint" />
            <mxPoint x="771" y="380" as="sourcePoint" />
            <Array as="points" />
          </mxGeometry>
        </mxCell>
        <mxCell id="dtB5DTBa3yLj0rCHDd4S-14" value="" style="rhombus;whiteSpace=wrap;html=1;fontColor=#000000;fillColor=#ffffc0;strokeColor=#ff0000;" parent="1" vertex="1">
          <mxGeometry x="720" y="370" width="80" height="40" as="geometry" />
        </mxCell>
        <mxCell id="7nmVNF_0FV4pf_lM1hzO-11" value="" style="edgeStyle=orthogonalEdgeStyle;html=1;align=left;verticalAlign=top;endArrow=open;endSize=8;strokeColor=#ff0000;rounded=0;" parent="1" source="dtB5DTBa3yLj0rCHDd4S-14" target="dtB5DTBa3yLj0rCHDd4S-23" edge="1">
          <mxGeometry x="-1" relative="1" as="geometry">
            <mxPoint x="810" y="460" as="targetPoint" />
            <mxPoint x="800" y="390" as="sourcePoint" />
          </mxGeometry>
        </mxCell>
        <mxCell id="dtB5DTBa3yLj0rCHDd4S-23" value="" style="shape=line;html=1;strokeWidth=6;strokeColor=#ff0000;" parent="1" vertex="1">
          <mxGeometry x="660" y="467" width="200" height="10" as="geometry" />
        </mxCell>
        <mxCell id="7nmVNF_0FV4pf_lM1hzO-13" value="" style="edgeStyle=orthogonalEdgeStyle;html=1;verticalAlign=bottom;endArrow=open;endSize=8;strokeColor=#ff0000;rounded=0;" parent="1" edge="1">
          <mxGeometry relative="1" as="geometry">
            <mxPoint x="900" y="539" as="targetPoint" />
            <mxPoint x="760" y="500" as="sourcePoint" />
            <Array as="points">
              <mxPoint x="760" y="510" />
              <mxPoint x="900" y="510" />
            </Array>
          </mxGeometry>
        </mxCell>
      </root>
    </mxGraphModel>
  </diagram>
</mxfile>
